<?xml version="1.0" encoding="UTF-8" standalone="no"?>
<!-- Created with Inkscape (http://www.inkscape.org/) -->

<svg
   xmlns:dc="http://purl.org/dc/elements/1.1/"
   xmlns:cc="http://creativecommons.org/ns#"
   xmlns:rdf="http://www.w3.org/1999/02/22-rdf-syntax-ns#"
   xmlns:svg="http://www.w3.org/2000/svg"
   xmlns="http://www.w3.org/2000/svg"
   xmlns:sodipodi="http://sodipodi.sourceforge.net/DTD/sodipodi-0.dtd"
   xmlns:inkscape="http://www.inkscape.org/namespaces/inkscape"
   width="2048"
   height="2048"
   id="svg2"
   version="1.1"
   inkscape:version="0.48.5 r10040"
   sodipodi:docname="coreShieldTwo.svg"
   inkscape:export-filename="C:\Users\Yggdrasil\Documents\GitHub\ArenaShooterR\Assets\Sprites\coreShieldTwo.png"
   inkscape:export-xdpi="90"
   inkscape:export-ydpi="90">
  <defs
     id="defs4" />
  <sodipodi:namedview
     id="base"
     pagecolor="#ffffff"
     bordercolor="#666666"
     borderopacity="1.0"
     inkscape:pageopacity="0.0"
     inkscape:pageshadow="2"
     inkscape:zoom="0.35"
     inkscape:cx="1297.8571"
     inkscape:cy="888.57143"
     inkscape:document-units="px"
     inkscape:current-layer="layer1"
     showgrid="false"
     inkscape:window-width="1920"
     inkscape:window-height="1018"
     inkscape:window-x="-8"
     inkscape:window-y="-8"
     inkscape:window-maximized="1" />
  <metadata
     id="metadata7">
    <rdf:RDF>
      <cc:Work
         rdf:about="">
        <dc:format>image/svg+xml</dc:format>
        <dc:type
           rdf:resource="http://purl.org/dc/dcmitype/StillImage" />
        <dc:title></dc:title>
      </cc:Work>
    </rdf:RDF>
  </metadata>
  <g
     inkscape:label="Layer 1"
     inkscape:groupmode="layer"
     id="layer1"
     transform="translate(0,995.63782)">
    <path
       sodipodi:type="arc"
       style="fill:#5599ff;stroke:#b3b3b3;stroke-width:3.11299992;stroke-miterlimit:4;stroke-opacity:1;stroke-dasharray:none"
       id="path2993-8"
       sodipodi:cx="1027.1428"
       sodipodi:cy="1058"
       sodipodi:rx="947.14288"
       sodipodi:ry="947.14288"
       d="m 1974.2857,1058 a 947.14288,947.14288 0 1 1 -1894.285761,0 947.14288,947.14288 0 1 1 1894.285761,0 z"
       transform="matrix(0.95934159,0,0,0.9608499,27.476313,-1032.7885)" />
    <rect
       style="fill:none;stroke:none"
       id="rect2989"
       width="2637.1428"
       height="2334.2856"
       x="-257.14285"
       y="-77.714287"
       transform="translate(0,-995.63782)"
       rx="0.9819901"
       ry="0.14562716" />
    <path
       sodipodi:type="arc"
       style="fill:#ececec;stroke:#b3b3b3;stroke-width:3.11299992000000000;stroke-miterlimit:4;stroke-opacity:1;stroke-dasharray:none"
       id="path2993"
       sodipodi:cx="1027.1428"
       sodipodi:cy="1058"
       sodipodi:rx="947.14288"
       sodipodi:ry="947.14288"
       d="m 1974.2857,1058 a 947.14288,947.14288 0 1 1 -1894.285761,0 947.14288,947.14288 0 1 1 1894.285761,0 z"
       transform="matrix(0.82230326,0,0,0.83436963,168.23422,-900.40084)" />
    <path
       sodipodi:type="arc"
       style="fill:#00ffff;stroke:#b3b3b3;stroke-width:3.11299992;stroke-miterlimit:4;stroke-opacity:1;stroke-dasharray:none"
       id="path2993-7"
       sodipodi:cx="1027.1428"
       sodipodi:cy="1058"
       sodipodi:rx="947.14288"
       sodipodi:ry="947.14288"
       d="m 1974.2857,1058 a 947.14288,947.14288 0 1 1 -1894.285761,0 947.14288,947.14288 0 1 1 1894.285761,0 z"
       transform="matrix(0.36002609,0,0,0.36002609,640.20183,-409.97394)" />
    <path
       style="fill:#ffcc00;stroke:#b3b3b3;stroke-width:3.09703541;stroke-miterlimit:4;stroke-opacity:1"
       d="m 912.41058,-766.16895 c 70.77391,-18.16501 141.54782,-19.9136 212.32172,0 0.5237,0.14734 346.7506,797.347967 346.6963,797.288397 L 1125.7143,-347.78335 c -0.054,-0.0595 -106.3983,163.45783 -106.6963,163.00267 L 912.41058,-347.63782 C 912.11262,-348.09299 571.39747,46.576745 571.42859,46.502364 l 340,-812.525774 c 0.0311,-0.0743 0.45505,-0.0103 0.98199,-0.14554 z"
       id="rect3065"
       inkscape:connector-curvature="0"
       sodipodi:nodetypes="sssssssss" />
    <path
       style="fill:#ffcc00;stroke:#b3b3b3;stroke-width:3.09703541;stroke-miterlimit:4;stroke-opacity:1"
       d="m 890.98195,714.41148 c 70.774,18.16501 141.54795,19.9136 212.32185,0 0.5237,-0.14734 346.7506,-797.347954 346.6963,-797.288384 L 1104.2858,296.02588 c -0.054,0.0595 -106.39834,-163.45783 -106.69634,-163.00267 L 890.98195,295.88035 C 890.68405,296.33552 549.96888,-98.334206 550,-98.259826 L 890.00005,714.26594 c 0.031,0.0743 0.455,0.0103 0.9819,0.14554 z"
       id="rect3065-8"
       inkscape:connector-curvature="0"
       sodipodi:nodetypes="sssssssss" />
  </g>
</svg>
